<svg width="36" height="30" viewBox="0 0 36 30" fill="none" xmlns="http://www.w3.org/2000/svg">
<path d="M5.70034 14.6146C4.88861 14.7801 4.36474 15.5723 4.53024 16.384C4.69573 17.1957 5.48793 17.7196 6.29966 17.5541L5.70034 14.6146ZM30.9308 17.2606C31.5805 16.7465 31.6903 15.8031 31.1762 15.1535L22.7988 4.56732C22.2847 3.9177 21.3413 3.80783 20.6917 4.32191C20.0421 4.83599 19.9322 5.77936 20.4463 6.42899L27.8929 15.8389L18.483 23.2856C17.8333 23.7997 17.7235 24.7431 18.2376 25.3927C18.7516 26.0423 19.695 26.1522 20.3446 25.6381L30.9308 17.2606ZM6.29966 17.5541C14.3334 15.9162 19.7101 16.396 29.8265 17.5743L30.1735 14.5944C20.0271 13.4127 14.2383 12.8738 5.70034 14.6146L6.29966 17.5541Z" fill="#224095"/>
</svg>
