<svg width="24" height="24" viewBox="0 0 24 24" fill="none" xmlns="http://www.w3.org/2000/svg">
<rect x="3.26093" y="3.26581" width="17.3889" height="16.4737" fill="white"/>
<path d="M8.40851 6.40575C8.15778 6.42115 7.90541 6.40988 7.65374 6.40986H6.79089C6.83099 6.4743 6.85371 6.51467 6.88003 6.55242C8.32709 8.62273 9.77436 10.6929 11.2218 12.763C12.5113 14.6075 13.8016 16.4514 15.0928 18.2947C15.1164 18.3291 15.1466 18.3585 15.1818 18.381C15.217 18.4035 15.2563 18.4187 15.2975 18.4257C15.8366 18.4364 16.376 18.4315 16.9152 18.4305C16.9404 18.4269 16.9651 18.4208 16.9889 18.4121C16.9427 18.3425 16.908 18.2878 16.8709 18.2346C16.23 17.3167 15.589 16.3989 14.9478 15.4812C12.8737 12.5128 10.8003 9.54384 8.72756 6.57446C8.69702 6.51797 8.65041 6.47179 8.59362 6.44176C8.53683 6.41173 8.47242 6.3992 8.40851 6.40575Z" fill="black"/>
<path d="M17.5658 0.389771H6.21434C4.63352 0.389771 3.11744 1.01422 1.99963 2.12575C0.881825 3.23728 0.253845 4.74484 0.253845 6.31678V17.6044C0.253845 19.1764 0.881825 20.6839 1.99963 21.7955C3.11744 22.907 4.63352 23.5314 6.21434 23.5314H17.5658C19.1466 23.5314 20.6627 22.907 21.7805 21.7955C22.8983 20.6839 23.5263 19.1764 23.5263 17.6044V6.31678C23.5263 4.74484 22.8983 3.23728 21.7805 2.12575C20.6627 1.01422 19.1466 0.389771 17.5658 0.389771ZM18.4581 19.2662C17.2272 19.2668 15.9964 19.2645 14.7656 19.27C14.7128 19.273 14.6602 19.2612 14.6139 19.2358C14.5675 19.2104 14.5294 19.1724 14.5038 19.1264C13.3427 17.4397 12.1797 15.7543 11.0148 14.0703C10.9846 14.0266 10.9514 13.9849 10.9045 13.9219C10.3433 14.5702 9.79621 15.2012 9.25013 15.833C8.28695 16.9474 7.32352 18.0615 6.35984 19.1755C6.3244 19.221 6.27332 19.252 6.21637 19.2624C5.8564 19.2697 5.49621 19.2664 5.08681 19.2664L10.3769 13.1465L5.08248 5.47737H5.306C6.50667 5.47726 7.7074 5.48047 8.90802 5.47303C8.97514 5.46749 9.04246 5.48108 9.10209 5.51221C9.16172 5.54333 9.2112 5.59071 9.24473 5.64879C10.3285 7.22853 11.4157 8.80594 12.5064 10.381C12.54 10.4296 12.5761 10.4765 12.6255 10.5439C12.8455 10.2902 13.0564 10.0473 13.2668 9.80396C14.4817 8.39875 15.6971 6.99401 16.9131 5.58975C16.9547 5.5347 17.0151 5.49658 17.0828 5.48249C17.4379 5.47256 17.7933 5.47753 18.2035 5.47753L13.1549 11.3192L18.6329 19.2532C18.5585 19.2588 18.5083 19.2661 18.4581 19.2662Z" fill="black"/>
</svg>
