<svg width="220" height="73" viewBox="0 0 220 73" fill="none" xmlns="http://www.w3.org/2000/svg">
<mask id="mask0_148_44" style="mask-type:alpha" maskUnits="userSpaceOnUse" x="0" y="8" width="220" height="57">
<path fill-rule="evenodd" clip-rule="evenodd" d="M161.378 8.00003C161.378 11.0564 158.5 13.534 154.949 13.534C151.398 13.534 148.519 11.0564 148.519 8.00003L7.04062 8C7.06162 8.18201 7.07237 8.36662 7.07237 8.55338C7.07237 11.6097 4.19382 14.0874 0.64296 14.0874C0.425961 14.0874 0.211473 14.0781 0 14.06V57.2524C3.55082 57.2525 6.42931 59.7301 6.42931 62.7864C6.42931 63.5735 6.23843 64.3221 5.89435 65H149.054C148.71 64.3221 148.519 63.5735 148.519 62.7864C148.519 59.7301 151.398 57.2524 154.949 57.2524C158.5 57.2524 161.378 59.7301 161.378 62.7864C161.378 63.5735 161.187 64.3221 160.843 65H210.134C209.79 64.3221 209.599 63.5735 209.599 62.7864C209.599 59.7301 212.477 57.2524 216.028 57.2524C217.199 57.2524 218.297 57.5219 219.243 57.9928V13.347C218.297 13.8179 217.199 14.0874 216.028 14.0874C212.477 14.0874 209.599 11.6097 209.599 8.55338C209.599 8.36662 209.609 8.18201 209.63 8L161.378 8.00003Z" fill="black"/>
</mask>
<g mask="url(#mask0_148_44)">
<path fill-rule="evenodd" clip-rule="evenodd" d="M161.378 8.00003C161.378 11.0564 158.5 13.534 154.949 13.534C151.398 13.534 148.519 11.0564 148.519 8.00003L7.04062 8C7.06162 8.18201 7.07237 8.36662 7.07237 8.55338C7.07237 11.6097 4.19382 14.0874 0.64296 14.0874C0.425961 14.0874 0.211473 14.0781 0 14.06V57.2524C3.55082 57.2525 6.42931 59.7301 6.42931 62.7864C6.42931 63.5735 6.23843 64.3221 5.89435 65H149.054C148.71 64.3221 148.519 63.5735 148.519 62.7864C148.519 59.7301 151.398 57.2524 154.949 57.2524C158.5 57.2524 161.378 59.7301 161.378 62.7864C161.378 63.5735 161.187 64.3221 160.843 65H210.134C209.79 64.3221 209.599 63.5735 209.599 62.7864C209.599 59.7301 212.477 57.2524 216.028 57.2524C217.199 57.2524 218.297 57.5219 219.243 57.9928V13.347C218.297 13.8179 217.199 14.0874 216.028 14.0874C212.477 14.0874 209.599 11.6097 209.599 8.55338C209.599 8.36662 209.609 8.18201 209.63 8L161.378 8.00003Z" fill="#224095"/>
</g>
<path d="M76.4 59V55.45H77.58C78.1467 55.45 78.5817 55.605 78.885 55.915C79.1917 56.2217 79.345 56.66 79.345 57.23C79.345 57.7967 79.195 58.2333 78.895 58.54C78.595 58.8467 78.1667 59 77.61 59H76.4ZM77.05 58.435H77.58C77.95 58.435 78.225 58.335 78.405 58.135C78.585 57.935 78.675 57.6333 78.675 57.23C78.675 56.82 78.585 56.515 78.405 56.315C78.225 56.115 77.95 56.015 77.58 56.015H77.05V58.435ZM82.2141 59L83.4941 55.45H84.2891L85.5691 59H84.8891L84.5941 58.16H83.1891L82.8941 59H82.2141ZM83.3791 57.605H84.4041L83.8941 56.105L83.3791 57.605ZM88.6969 59V55.45H90.1819C90.4385 55.45 90.6602 55.4933 90.8469 55.58C91.0335 55.6667 91.1785 55.79 91.2819 55.95C91.3852 56.11 91.4369 56.2983 91.4369 56.515C91.4369 56.6783 91.4019 56.8233 91.3319 56.95C91.2619 57.0767 91.1669 57.1783 91.0469 57.255C90.9302 57.3317 90.8002 57.3783 90.6569 57.395L90.6319 57.345C90.8619 57.345 91.0385 57.3967 91.1619 57.5C91.2885 57.6033 91.3602 57.7617 91.3769 57.975L91.4669 59H90.8069L90.7319 58.07C90.7219 57.93 90.6769 57.8267 90.5969 57.76C90.5169 57.6933 90.3835 57.66 90.1969 57.66H89.3469V59H88.6969ZM89.3469 57.09H90.1419C90.3385 57.09 90.4919 57.0433 90.6019 56.95C90.7119 56.8567 90.7669 56.725 90.7669 56.555C90.7669 56.3817 90.7102 56.2483 90.5969 56.155C90.4869 56.0617 90.3252 56.015 90.1119 56.015H89.3469V57.09ZM96.0141 59.08C95.7575 59.08 95.5358 59.025 95.3491 58.915C95.1625 58.8017 95.0191 58.6467 94.9191 58.45C94.8225 58.25 94.7725 58.0233 94.7691 57.77L95.4241 57.735C95.4308 57.995 95.4841 58.19 95.5841 58.32C95.6875 58.45 95.8308 58.515 96.0141 58.515C96.2008 58.515 96.3458 58.45 96.4491 58.32C96.5525 58.1867 96.6041 57.9917 96.6041 57.735V55.45H97.2541V57.735C97.2541 58.0083 97.2025 58.2467 97.0991 58.45C96.9958 58.65 96.8508 58.805 96.6641 58.915C96.4808 59.025 96.2641 59.08 96.0141 59.08ZM100.803 59V55.45H103.193V56.015H101.453V56.94H103.133V57.5H101.453V58.435H103.233V59H100.803ZM106.605 59V55.45H108.995V56.015H107.255V56.94H108.935V57.5H107.255V58.435H109.035V59H106.605ZM112.431 59V55.45H113.081V58.8L112.726 58.435H114.766V59H112.431ZM117.921 59V55.45H118.571V59H117.921ZM122.043 59V55.45H122.803L124.333 58.12V55.45H124.983V59H124.203L122.693 56.405V59H122.043ZM129.89 59.08C129.553 59.08 129.263 59.0017 129.02 58.845C128.776 58.685 128.59 58.4667 128.46 58.19C128.333 57.9133 128.27 57.5933 128.27 57.23C128.27 56.8733 128.335 56.555 128.465 56.275C128.598 55.995 128.788 55.775 129.035 55.615C129.281 55.4517 129.578 55.37 129.925 55.37C130.225 55.37 130.476 55.4217 130.68 55.525C130.886 55.6283 131.051 55.7717 131.175 55.955C131.298 56.1383 131.385 56.35 131.435 56.59L130.755 56.625C130.718 56.415 130.635 56.2483 130.505 56.125C130.378 55.9983 130.186 55.935 129.93 55.935C129.703 55.935 129.516 55.9933 129.37 56.11C129.226 56.2267 129.118 56.3833 129.045 56.58C128.975 56.7733 128.94 56.99 128.94 57.23C128.94 57.4767 128.975 57.6967 129.045 57.89C129.115 58.0833 129.223 58.2367 129.37 58.35C129.52 58.46 129.708 58.515 129.935 58.515C130.111 58.515 130.263 58.4783 130.39 58.405C130.516 58.3317 130.616 58.2317 130.69 58.105C130.763 57.975 130.803 57.8317 130.81 57.675H129.935V57.17H131.445V59H131.025L130.985 58.22L131.065 58.27C131.028 58.43 130.953 58.5717 130.84 58.695C130.73 58.815 130.591 58.91 130.425 58.98C130.261 59.0467 130.083 59.08 129.89 59.08Z" fill="#F9FFF1"/>
<path d="M18.4 59V55.45H20.775V56.015H18.695L19.05 55.65V57.28L18.695 56.985H20.685V57.545H18.695L19.05 57.25V59H18.4ZM24.0699 59V55.45H24.7199V59H24.0699ZM28.2701 59V55.45H28.9201V58.8L28.5651 58.435H30.6051V59H28.2701ZM33.7594 59V55.45H34.6344L35.6144 58.2L36.5944 55.45H37.4694V59H36.8194V56.55L35.9244 58.995H35.3044L34.4094 56.55V59H33.7594ZM42.283 59.08C41.9896 59.08 41.7363 59.0283 41.523 58.925C41.3096 58.8217 41.1413 58.6783 41.018 58.495C40.898 58.3083 40.828 58.0917 40.808 57.845L41.468 57.805C41.488 57.9583 41.5313 58.0883 41.598 58.195C41.668 58.3017 41.7596 58.3833 41.873 58.44C41.9896 58.4933 42.1296 58.52 42.293 58.52C42.433 58.52 42.5513 58.5033 42.648 58.47C42.748 58.4333 42.823 58.3817 42.873 58.315C42.9263 58.245 42.953 58.16 42.953 58.06C42.953 57.97 42.9313 57.89 42.888 57.82C42.8446 57.7467 42.7613 57.6817 42.638 57.625C42.5146 57.565 42.3313 57.5067 42.088 57.45C41.7946 57.3833 41.5596 57.3083 41.383 57.225C41.2063 57.1383 41.078 57.0317 40.998 56.905C40.918 56.775 40.878 56.6133 40.878 56.42C40.878 56.2133 40.9296 56.0317 41.033 55.875C41.1363 55.715 41.283 55.5917 41.473 55.505C41.663 55.415 41.8913 55.37 42.158 55.37C42.4413 55.37 42.6813 55.4217 42.878 55.525C43.0746 55.625 43.2296 55.7633 43.343 55.94C43.4563 56.1167 43.5263 56.32 43.553 56.55L42.898 56.58C42.8813 56.45 42.8413 56.3367 42.778 56.24C42.718 56.1433 42.6346 56.0683 42.528 56.015C42.4246 55.9583 42.298 55.93 42.148 55.93C41.9613 55.93 41.813 55.9733 41.703 56.06C41.5963 56.1433 41.543 56.255 41.543 56.395C41.543 56.4917 41.5646 56.5717 41.608 56.635C41.6546 56.6983 41.7363 56.7533 41.853 56.8C41.9696 56.8433 42.133 56.89 42.343 56.94C42.6596 57.0067 42.9113 57.0917 43.098 57.195C43.2846 57.2983 43.418 57.4183 43.498 57.555C43.578 57.6917 43.618 57.8483 43.618 58.025C43.618 58.2417 43.563 58.43 43.453 58.59C43.343 58.7467 43.188 58.8683 42.988 58.955C42.788 59.0383 42.553 59.08 42.283 59.08Z" fill="#F9FFF1"/>
<path d="M7.24316 38V25.3364H17.272C18.5337 25.3364 19.4583 25.3859 20.0459 25.4849C21.1221 25.6766 21.8952 26.1064 22.3652 26.7744C22.7363 27.3001 22.9219 27.9186 22.9219 28.6299C22.9219 29.2607 22.7642 29.7896 22.4487 30.2163C22.2756 30.4575 21.988 30.7111 21.5859 30.9771C21.9756 31.1564 22.2663 31.311 22.458 31.4409C22.9033 31.7502 23.2404 32.2017 23.4692 32.7954C23.6239 33.216 23.7012 33.6768 23.7012 34.1777C23.7012 35.0807 23.4723 35.8631 23.0146 36.5249C22.526 37.2362 21.7189 37.6815 20.5933 37.8608C20.0366 37.9536 19.2048 38 18.0977 38H7.24316ZM12.0952 34.9199H16.168C17.0833 34.9076 17.6338 34.8859 17.8193 34.855C18.2894 34.7746 18.5244 34.4839 18.5244 33.9829C18.5244 33.5562 18.3141 33.2964 17.8936 33.2036C17.6895 33.1603 17.1143 33.1325 16.168 33.1201H12.0952V34.9199ZM12.0952 30.0308H15.6206C16.3937 30.0308 16.9009 30.006 17.1421 29.9565C17.5441 29.8761 17.7451 29.6257 17.7451 29.2051C17.7451 28.834 17.5658 28.6021 17.207 28.5093C16.9287 28.4351 16.3999 28.3979 15.6206 28.3979H12.0952V30.0308ZM33.7671 24.9282C35.7091 24.9282 37.277 25.1663 38.4707 25.6426C40.0046 26.2611 41.0591 27.1826 41.6343 28.4072C42.0487 29.2917 42.2559 30.3771 42.2559 31.6636C42.2559 33.9149 41.6003 35.5662 40.2891 36.6177C39.3737 37.3599 38.3192 37.8485 37.1255 38.0835C36.0369 38.2938 34.8711 38.3989 33.6279 38.3989C31.5931 38.3989 29.9788 38.1608 28.7852 37.6846C27.2575 37.0723 26.203 36.1507 25.6216 34.9199C25.2072 34.0355 25 32.9531 25 31.6729C25 29.4154 25.6556 27.7578 26.9668 26.7002C27.8945 25.9518 28.9491 25.4663 30.1304 25.2437C31.2375 25.0334 32.4497 24.9282 33.7671 24.9282ZM33.5815 28.1567C32.5858 28.1567 31.8003 28.4382 31.2251 29.001C30.6313 29.5885 30.3345 30.4637 30.3345 31.6265C30.3345 32.8263 30.6313 33.7231 31.2251 34.3169C31.7879 34.8859 32.5889 35.1704 33.6279 35.1704C34.6608 35.1704 35.4618 34.8859 36.0308 34.3169C36.6245 33.7293 36.9214 32.848 36.9214 31.6729C36.9214 29.3288 35.8081 28.1567 33.5815 28.1567ZM52.4517 24.9282C54.3937 24.9282 55.9616 25.1663 57.1553 25.6426C58.6891 26.2611 59.7437 27.1826 60.3188 28.4072C60.7332 29.2917 60.9404 30.3771 60.9404 31.6636C60.9404 33.9149 60.2848 35.5662 58.9736 36.6177C58.0583 37.3599 57.0037 37.8485 55.8101 38.0835C54.7215 38.2938 53.5557 38.3989 52.3125 38.3989C50.2777 38.3989 48.6634 38.1608 47.4697 37.6846C45.9421 37.0723 44.8875 36.1507 44.3062 34.9199C43.8918 34.0355 43.6846 32.9531 43.6846 31.6729C43.6846 29.4154 44.3402 27.7578 45.6514 26.7002C46.5791 25.9518 47.6336 25.4663 48.8149 25.2437C49.922 25.0334 51.1343 24.9282 52.4517 24.9282ZM52.2661 28.1567C51.2703 28.1567 50.4849 28.4382 49.9097 29.001C49.3159 29.5885 49.019 30.4637 49.019 31.6265C49.019 32.8263 49.3159 33.7231 49.9097 34.3169C50.4725 34.8859 51.2734 35.1704 52.3125 35.1704C53.3454 35.1704 54.1463 34.8859 54.7153 34.3169C55.3091 33.7293 55.606 32.848 55.606 31.6729C55.606 29.3288 54.4927 28.1567 52.2661 28.1567ZM62.9072 38V25.3364H67.7593V30.1143L72.6948 25.3364H79.2817L74.0215 29.8545L79.6064 38H73.4741L69.9766 32.6748L67.7593 34.7993V38H62.9072ZM85.7109 38V25.3364H91.1938L96.5562 32.2666V25.3364H101.408V38H96.083L90.563 31.1348V38H85.7109ZM112.198 24.9282C114.14 24.9282 115.708 25.1663 116.901 25.6426C118.435 26.2611 119.49 27.1826 120.065 28.4072C120.479 29.2917 120.687 30.3771 120.687 31.6636C120.687 33.9149 120.031 35.5662 118.72 36.6177C117.804 37.3599 116.75 37.8485 115.556 38.0835C114.468 38.2938 113.302 38.3989 112.059 38.3989C110.024 38.3989 108.41 38.1608 107.216 37.6846C105.688 37.0723 104.634 36.1507 104.052 34.9199C103.638 34.0355 103.431 32.9531 103.431 31.6729C103.431 29.4154 104.086 27.7578 105.397 26.7002C106.325 25.9518 107.38 25.4663 108.561 25.2437C109.668 25.0334 110.88 24.9282 112.198 24.9282ZM112.012 28.1567C111.016 28.1567 110.231 28.4382 109.656 29.001C109.062 29.5885 108.765 30.4637 108.765 31.6265C108.765 32.8263 109.062 33.7231 109.656 34.3169C110.219 34.8859 111.02 35.1704 112.059 35.1704C113.091 35.1704 113.892 34.8859 114.461 34.3169C115.055 33.7293 115.352 32.848 115.352 31.6729C115.352 29.3288 114.239 28.1567 112.012 28.1567ZM125.307 38L120.891 25.3364H126.03L128.285 32.2666L130.456 25.3364H135.168L137.441 32.2666L139.557 25.3364H144.687L140.429 38H134.872L132.775 31.2832L130.725 38H125.307Z" fill="#F9FFF1"/>
<line x1="155" y1="4.37114e-08" x2="155" y2="73" stroke="#F9FFF1" stroke-width="2" stroke-dasharray="4 4"/>
<path d="M175.7 35.6146C174.889 35.7801 174.365 36.5723 174.53 37.384C174.696 38.1957 175.488 38.7196 176.3 38.5541L175.7 35.6146ZM200.931 38.2606C201.58 37.7465 201.69 36.8031 201.176 36.1535L192.799 25.5673C192.285 24.9177 191.341 24.8078 190.692 25.3219C190.042 25.836 189.932 26.7794 190.446 27.429L197.893 36.8389L188.483 44.2856C187.833 44.7997 187.723 45.7431 188.238 46.3927C188.752 47.0423 189.695 47.1522 190.345 46.6381L200.931 38.2606ZM176.3 38.5541C184.333 36.9162 189.71 37.396 199.826 38.5743L200.174 35.5944C190.027 34.4127 184.238 33.8739 175.7 35.6146L176.3 38.5541Z" fill="white"/>
<line x1="54.375" y1="50" x2="54.375" y2="65" stroke="#F9FFF1" stroke-width="0.75"/>
<line y1="49.625" x2="155" y2="49.625" stroke="#F9FFF1" stroke-width="0.75"/>
</svg>
