<svg width="220" height="74" viewBox="0 0 220 74" fill="none" xmlns="http://www.w3.org/2000/svg">
<mask id="mask0_103_2445" style="mask-type:alpha" maskUnits="userSpaceOnUse" x="0" y="8" width="220" height="58">
<path fill-rule="evenodd" clip-rule="evenodd" d="M161.378 8.62259C161.378 11.6789 158.5 14.1566 154.949 14.1566C151.398 14.1566 148.519 11.6789 148.519 8.62259L7.04062 8.62256C7.06162 8.80457 7.07237 8.98918 7.07237 9.17594C7.07237 12.2323 4.19382 14.7099 0.64296 14.7099C0.425961 14.7099 0.211473 14.7007 0 14.6826V57.875C3.55082 57.875 6.42931 60.3527 6.42931 63.409C6.42931 64.196 6.23843 64.9447 5.89435 65.6225H149.054C148.71 64.9447 148.519 64.196 148.519 63.409C148.519 60.3527 151.398 57.875 154.949 57.875C158.5 57.875 161.378 60.3527 161.378 63.409C161.378 64.196 161.187 64.9447 160.843 65.6225H210.134C209.79 64.9447 209.599 64.196 209.599 63.409C209.599 60.3527 212.477 57.875 216.028 57.875C217.199 57.875 218.297 58.1445 219.243 58.6154V13.9696C218.297 14.4404 217.199 14.7099 216.028 14.7099C212.477 14.7099 209.599 12.2323 209.599 9.17594C209.599 8.98918 209.609 8.80457 209.63 8.62256L161.378 8.62259Z" fill="black"/>
</mask>
<g mask="url(#mask0_103_2445)">
<path fill-rule="evenodd" clip-rule="evenodd" d="M161.378 8.62259C161.378 11.6789 158.5 14.1566 154.949 14.1566C151.398 14.1566 148.519 11.6789 148.519 8.62259L7.04062 8.62256C7.06162 8.80457 7.07237 8.98918 7.07237 9.17594C7.07237 12.2323 4.19382 14.7099 0.64296 14.7099C0.425961 14.7099 0.211473 14.7007 0 14.6826V57.875C3.55082 57.875 6.42931 60.3527 6.42931 63.409C6.42931 64.196 6.23843 64.9447 5.89435 65.6225H149.054C148.71 64.9447 148.519 64.196 148.519 63.409C148.519 60.3527 151.398 57.875 154.949 57.875C158.5 57.875 161.378 60.3527 161.378 63.409C161.378 64.196 161.187 64.9447 160.843 65.6225H210.134C209.79 64.9447 209.599 64.196 209.599 63.409C209.599 60.3527 212.477 57.875 216.028 57.875C217.199 57.875 218.297 58.1445 219.243 58.6154V13.9696C218.297 14.4404 217.199 14.7099 216.028 14.7099C212.477 14.7099 209.599 12.2323 209.599 9.17594C209.599 8.98918 209.609 8.80457 209.63 8.62256L161.378 8.62259Z" fill="black"/>
</g>
<path d="M76.4 59.6226V56.0726H77.58C78.1467 56.0726 78.5817 56.2276 78.885 56.5376C79.1917 56.8442 79.345 57.2826 79.345 57.8526C79.345 58.4192 79.195 58.8559 78.895 59.1626C78.595 59.4692 78.1667 59.6226 77.61 59.6226H76.4ZM77.05 59.0576H77.58C77.95 59.0576 78.225 58.9576 78.405 58.7576C78.585 58.5576 78.675 58.2559 78.675 57.8526C78.675 57.4426 78.585 57.1376 78.405 56.9376C78.225 56.7376 77.95 56.6376 77.58 56.6376H77.05V59.0576ZM82.2141 59.6226L83.4941 56.0726H84.2891L85.5691 59.6226H84.8891L84.5941 58.7826H83.1891L82.8941 59.6226H82.2141ZM83.3791 58.2276H84.4041L83.8941 56.7276L83.3791 58.2276ZM88.6969 59.6226V56.0726H90.1819C90.4385 56.0726 90.6602 56.1159 90.8469 56.2026C91.0335 56.2892 91.1785 56.4126 91.2819 56.5726C91.3852 56.7326 91.4369 56.9209 91.4369 57.1376C91.4369 57.3009 91.4019 57.4459 91.3319 57.5726C91.2619 57.6992 91.1669 57.8009 91.0469 57.8776C90.9302 57.9542 90.8002 58.0009 90.6569 58.0176L90.6319 57.9676C90.8619 57.9676 91.0385 58.0192 91.1619 58.1226C91.2885 58.2259 91.3602 58.3842 91.3769 58.5976L91.4669 59.6226H90.8069L90.7319 58.6926C90.7219 58.5526 90.6769 58.4492 90.5969 58.3826C90.5169 58.3159 90.3835 58.2826 90.1969 58.2826H89.3469V59.6226H88.6969ZM89.3469 57.7126H90.1419C90.3385 57.7126 90.4919 57.6659 90.6019 57.5726C90.7119 57.4792 90.7669 57.3476 90.7669 57.1776C90.7669 57.0042 90.7102 56.8709 90.5969 56.7776C90.4869 56.6842 90.3252 56.6376 90.1119 56.6376H89.3469V57.7126ZM96.0141 59.7026C95.7575 59.7026 95.5358 59.6476 95.3491 59.5376C95.1625 59.4242 95.0191 59.2692 94.9191 59.0726C94.8225 58.8726 94.7725 58.6459 94.7691 58.3926L95.4241 58.3576C95.4308 58.6176 95.4841 58.8126 95.5841 58.9426C95.6875 59.0726 95.8308 59.1376 96.0141 59.1376C96.2008 59.1376 96.3458 59.0726 96.4491 58.9426C96.5525 58.8092 96.6041 58.6142 96.6041 58.3576V56.0726H97.2541V58.3576C97.2541 58.6309 97.2025 58.8692 97.0991 59.0726C96.9958 59.2726 96.8508 59.4276 96.6641 59.5376C96.4808 59.6476 96.2641 59.7026 96.0141 59.7026ZM100.803 59.6226V56.0726H103.193V56.6376H101.453V57.5626H103.133V58.1226H101.453V59.0576H103.233V59.6226H100.803ZM106.605 59.6226V56.0726H108.995V56.6376H107.255V57.5626H108.935V58.1226H107.255V59.0576H109.035V59.6226H106.605ZM112.431 59.6226V56.0726H113.081V59.4226L112.726 59.0576H114.766V59.6226H112.431ZM117.921 59.6226V56.0726H118.571V59.6226H117.921ZM122.043 59.6226V56.0726H122.803L124.333 58.7426V56.0726H124.983V59.6226H124.203L122.693 57.0276V59.6226H122.043ZM129.89 59.7026C129.553 59.7026 129.263 59.6242 129.02 59.4676C128.776 59.3076 128.59 59.0892 128.46 58.8126C128.333 58.5359 128.27 58.2159 128.27 57.8526C128.27 57.4959 128.335 57.1776 128.465 56.8976C128.598 56.6176 128.788 56.3976 129.035 56.2376C129.281 56.0742 129.578 55.9926 129.925 55.9926C130.225 55.9926 130.476 56.0442 130.68 56.1476C130.886 56.2509 131.051 56.3942 131.175 56.5776C131.298 56.7609 131.385 56.9726 131.435 57.2126L130.755 57.2476C130.718 57.0376 130.635 56.8709 130.505 56.7476C130.378 56.6209 130.186 56.5576 129.93 56.5576C129.703 56.5576 129.516 56.6159 129.37 56.7326C129.226 56.8492 129.118 57.0059 129.045 57.2026C128.975 57.3959 128.94 57.6126 128.94 57.8526C128.94 58.0992 128.975 58.3192 129.045 58.5126C129.115 58.7059 129.223 58.8592 129.37 58.9726C129.52 59.0826 129.708 59.1376 129.935 59.1376C130.111 59.1376 130.263 59.1009 130.39 59.0276C130.516 58.9542 130.616 58.8542 130.69 58.7276C130.763 58.5976 130.803 58.4542 130.81 58.2976H129.935V57.7926H131.445V59.6226H131.025L130.985 58.8426L131.065 58.8926C131.028 59.0526 130.953 59.1942 130.84 59.3176C130.73 59.4376 130.591 59.5326 130.425 59.6026C130.261 59.6692 130.083 59.7026 129.89 59.7026Z" fill="#F9FFF1"/>
<path d="M18.4 59.6226V56.0726H20.775V56.6376H18.695L19.05 56.2726V57.9026L18.695 57.6076H20.685V58.1676H18.695L19.05 57.8726V59.6226H18.4ZM24.0699 59.6226V56.0726H24.7199V59.6226H24.0699ZM28.2701 59.6226V56.0726H28.9201V59.4226L28.5651 59.0576H30.6051V59.6226H28.2701ZM33.7594 59.6226V56.0726H34.6344L35.6144 58.8226L36.5944 56.0726H37.4694V59.6226H36.8194V57.1726L35.9244 59.6176H35.3044L34.4094 57.1726V59.6226H33.7594ZM42.283 59.7026C41.9896 59.7026 41.7363 59.6509 41.523 59.5476C41.3096 59.4442 41.1413 59.3009 41.018 59.1176C40.898 58.9309 40.828 58.7142 40.808 58.4676L41.468 58.4276C41.488 58.5809 41.5313 58.7109 41.598 58.8176C41.668 58.9242 41.7596 59.0059 41.873 59.0626C41.9896 59.1159 42.1296 59.1426 42.293 59.1426C42.433 59.1426 42.5513 59.1259 42.648 59.0926C42.748 59.0559 42.823 59.0042 42.873 58.9376C42.9263 58.8676 42.953 58.7826 42.953 58.6826C42.953 58.5926 42.9313 58.5126 42.888 58.4426C42.8446 58.3692 42.7613 58.3042 42.638 58.2476C42.5146 58.1876 42.3313 58.1292 42.088 58.0726C41.7946 58.0059 41.5596 57.9309 41.383 57.8476C41.2063 57.7609 41.078 57.6542 40.998 57.5276C40.918 57.3976 40.878 57.2359 40.878 57.0426C40.878 56.8359 40.9296 56.6542 41.033 56.4976C41.1363 56.3376 41.283 56.2142 41.473 56.1276C41.663 56.0376 41.8913 55.9926 42.158 55.9926C42.4413 55.9926 42.6813 56.0442 42.878 56.1476C43.0746 56.2476 43.2296 56.3859 43.343 56.5626C43.4563 56.7392 43.5263 56.9426 43.553 57.1726L42.898 57.2026C42.8813 57.0726 42.8413 56.9592 42.778 56.8626C42.718 56.7659 42.6346 56.6909 42.528 56.6376C42.4246 56.5809 42.298 56.5526 42.148 56.5526C41.9613 56.5526 41.813 56.5959 41.703 56.6826C41.5963 56.7659 41.543 56.8776 41.543 57.0176C41.543 57.1142 41.5646 57.1942 41.608 57.2576C41.6546 57.3209 41.7363 57.3759 41.853 57.4226C41.9696 57.4659 42.133 57.5126 42.343 57.5626C42.6596 57.6292 42.9113 57.7142 43.098 57.8176C43.2846 57.9209 43.418 58.0409 43.498 58.1776C43.578 58.3142 43.618 58.4709 43.618 58.6476C43.618 58.8642 43.563 59.0526 43.453 59.2126C43.343 59.3692 43.188 59.4909 42.988 59.5776C42.788 59.6609 42.553 59.7026 42.283 59.7026Z" fill="#F9FFF1"/>
<path d="M46.1406 23.293H52.0142V31.3677C52.0142 32.7303 51.9954 33.6362 51.958 34.0854C51.8757 35.0588 51.6286 35.8636 51.2168 36.5C50.805 37.1364 50.1911 37.6717 49.375 38.106C48.1097 38.7798 46.339 39.1167 44.063 39.1167C41.6073 39.1167 39.6606 38.776 38.2231 38.0947C37.0103 37.5257 36.2054 36.7695 35.8086 35.8262C35.5016 35.0775 35.3481 33.8646 35.3481 32.1875H41.1992C41.2441 33.1758 41.3864 33.8796 41.626 34.2988C41.9779 34.9053 42.6816 35.2085 43.7373 35.2085C44.5309 35.2085 45.1224 35.0026 45.5117 34.5908C45.8711 34.209 46.0732 33.3892 46.1182 32.1313C46.1331 31.5773 46.1406 31.1917 46.1406 30.9746V23.293ZM64.8394 22.7988C67.1903 22.7988 69.0882 23.0871 70.5332 23.6636C72.39 24.4123 73.6665 25.5278 74.3628 27.0103C74.8644 28.0809 75.1152 29.3949 75.1152 30.9521C75.1152 33.6774 74.3216 35.6764 72.7344 36.9492C71.6263 37.8477 70.3498 38.4391 68.9048 38.7236C67.5871 38.9782 66.1758 39.1055 64.6709 39.1055C62.2077 39.1055 60.2536 38.8172 58.8086 38.2407C56.9593 37.4995 55.6828 36.384 54.979 34.894C54.4774 33.8234 54.2266 32.5132 54.2266 30.9634C54.2266 28.2306 55.0202 26.2241 56.6074 24.9438C57.7305 24.0379 59.007 23.4502 60.437 23.1807C61.7772 22.9261 63.2446 22.7988 64.8394 22.7988ZM64.6147 26.707C63.4093 26.707 62.4585 27.0477 61.7622 27.729C61.0435 28.4403 60.6841 29.4997 60.6841 30.9072C60.6841 32.3597 61.0435 33.4453 61.7622 34.1641C62.4435 34.8529 63.4131 35.1973 64.6709 35.1973C65.9212 35.1973 66.8908 34.8529 67.5796 34.1641C68.2983 33.4528 68.6577 32.3859 68.6577 30.9634C68.6577 28.1258 67.3101 26.707 64.6147 26.707ZM77.541 38.6226V23.293H83.4146V38.6226H77.541ZM86.4805 38.6226V23.293H93.1177L99.6089 31.6821V23.293H105.482V38.6226H99.0361L92.354 30.312V38.6226H86.4805Z" fill="#F9FFF1"/>
<line x1="155" y1="0.622559" x2="155" y2="73.6226" stroke="#F9FFF1" stroke-width="2" stroke-dasharray="4 4"/>
<path d="M175.7 36.2372C174.889 36.4026 174.365 37.1948 174.53 38.0066C174.696 38.8183 175.488 39.3422 176.3 39.1767L175.7 36.2372ZM200.931 38.8832C201.58 38.3691 201.69 37.4257 201.176 36.7761L192.799 26.1899C192.285 25.5403 191.341 25.4304 190.692 25.9445C190.042 26.4586 189.932 27.4019 190.446 28.0515L197.893 37.4615L188.483 44.9082C187.833 45.4222 187.723 46.3656 188.238 47.0152C188.752 47.6649 189.695 47.7747 190.345 47.2607L200.931 38.8832ZM176.3 39.1767C184.333 37.5387 189.71 38.0186 199.826 39.1968L200.174 36.217C190.027 35.0352 184.238 34.4964 175.7 36.2372L176.3 39.1767Z" fill="white"/>
<line x1="54.375" y1="50.6226" x2="54.375" y2="65.6226" stroke="#F9FFF1" stroke-width="0.75"/>
<line y1="50.2476" x2="155" y2="50.2476" stroke="#F9FFF1" stroke-width="0.75"/>
</svg>
