<svg width="220" height="74" viewBox="0 0 220 74" fill="none" xmlns="http://www.w3.org/2000/svg">
<mask id="mask0_0_236" style="mask-type:alpha" maskUnits="userSpaceOnUse" x="0" y="8" width="220" height="58">
<path fill-rule="evenodd" clip-rule="evenodd" d="M161.378 8.15225C161.378 11.2086 158.5 13.6862 154.949 13.6862C151.398 13.6862 148.519 11.2086 148.519 8.15225L7.04062 8.15222C7.06162 8.33423 7.07237 8.51884 7.07237 8.70561C7.07237 11.7619 4.19382 14.2396 0.64296 14.2396C0.425961 14.2396 0.211473 14.2303 0 14.2123V57.4047C3.55082 57.4047 6.42931 59.8823 6.42931 62.9386C6.42931 63.7257 6.23843 64.4743 5.89435 65.1522H149.054C148.71 64.4743 148.519 63.7257 148.519 62.9386C148.519 59.8823 151.398 57.4047 154.949 57.4047C158.5 57.4047 161.378 59.8823 161.378 62.9386C161.378 63.7257 161.187 64.4743 160.843 65.1522H210.134C209.79 64.4743 209.599 63.7257 209.599 62.9386C209.599 59.8823 212.477 57.4047 216.028 57.4047C217.199 57.4047 218.297 57.6742 219.243 58.145V13.4992C218.297 13.9701 217.199 14.2396 216.028 14.2396C212.477 14.2396 209.599 11.7619 209.599 8.70561C209.599 8.51884 209.609 8.33423 209.63 8.15222L161.378 8.15225Z" fill="black"/>
</mask>
<g mask="url(#mask0_0_236)">
<path fill-rule="evenodd" clip-rule="evenodd" d="M161.378 8.15225C161.378 11.2086 158.5 13.6862 154.949 13.6862C151.398 13.6862 148.519 11.2086 148.519 8.15225L7.04062 8.15222C7.06162 8.33423 7.07237 8.51884 7.07237 8.70561C7.07237 11.7619 4.19382 14.2396 0.64296 14.2396C0.425961 14.2396 0.211473 14.2303 0 14.2123V57.4047C3.55082 57.4047 6.42931 59.8823 6.42931 62.9386C6.42931 63.7257 6.23843 64.4743 5.89435 65.1522H149.054C148.71 64.4743 148.519 63.7257 148.519 62.9386C148.519 59.8823 151.398 57.4047 154.949 57.4047C158.5 57.4047 161.378 59.8823 161.378 62.9386C161.378 63.7257 161.187 64.4743 160.843 65.1522H210.134C209.79 64.4743 209.599 63.7257 209.599 62.9386C209.599 59.8823 212.477 57.4047 216.028 57.4047C217.199 57.4047 218.297 57.6742 219.243 58.145V13.4992C218.297 13.9701 217.199 14.2396 216.028 14.2396C212.477 14.2396 209.599 11.7619 209.599 8.70561C209.599 8.51884 209.609 8.33423 209.63 8.15222L161.378 8.15225Z" fill="black"/>
</g>
<path d="M76.4 59.1522V55.6022H77.58C78.1467 55.6022 78.5817 55.7572 78.885 56.0672C79.1917 56.3739 79.345 56.8122 79.345 57.3822C79.345 57.9489 79.195 58.3856 78.895 58.6922C78.595 58.9989 78.1667 59.1522 77.61 59.1522H76.4ZM77.05 58.5872H77.58C77.95 58.5872 78.225 58.4872 78.405 58.2872C78.585 58.0872 78.675 57.7856 78.675 57.3822C78.675 56.9722 78.585 56.6672 78.405 56.4672C78.225 56.2672 77.95 56.1672 77.58 56.1672H77.05V58.5872ZM82.2141 59.1522L83.4941 55.6022H84.2891L85.5691 59.1522H84.8891L84.5941 58.3122H83.1891L82.8941 59.1522H82.2141ZM83.3791 57.7572H84.4041L83.8941 56.2572L83.3791 57.7572ZM88.6969 59.1522V55.6022H90.1819C90.4385 55.6022 90.6602 55.6456 90.8469 55.7322C91.0335 55.8189 91.1785 55.9422 91.2819 56.1022C91.3852 56.2622 91.4369 56.4506 91.4369 56.6672C91.4369 56.8306 91.4019 56.9756 91.3319 57.1022C91.2619 57.2289 91.1669 57.3306 91.0469 57.4072C90.9302 57.4839 90.8002 57.5306 90.6569 57.5472L90.6319 57.4972C90.8619 57.4972 91.0385 57.5489 91.1619 57.6522C91.2885 57.7556 91.3602 57.9139 91.3769 58.1272L91.4669 59.1522H90.8069L90.7319 58.2222C90.7219 58.0822 90.6769 57.9789 90.5969 57.9122C90.5169 57.8456 90.3835 57.8122 90.1969 57.8122H89.3469V59.1522H88.6969ZM89.3469 57.2422H90.1419C90.3385 57.2422 90.4919 57.1956 90.6019 57.1022C90.7119 57.0089 90.7669 56.8772 90.7669 56.7072C90.7669 56.5339 90.7102 56.4006 90.5969 56.3072C90.4869 56.2139 90.3252 56.1672 90.1119 56.1672H89.3469V57.2422ZM96.0141 59.2322C95.7575 59.2322 95.5358 59.1772 95.3491 59.0672C95.1625 58.9539 95.0191 58.7989 94.9191 58.6022C94.8225 58.4022 94.7725 58.1756 94.7691 57.9222L95.4241 57.8872C95.4308 58.1472 95.4841 58.3422 95.5841 58.4722C95.6875 58.6022 95.8308 58.6672 96.0141 58.6672C96.2008 58.6672 96.3458 58.6022 96.4491 58.4722C96.5525 58.3389 96.6041 58.1439 96.6041 57.8872V55.6022H97.2541V57.8872C97.2541 58.1606 97.2025 58.3989 97.0991 58.6022C96.9958 58.8022 96.8508 58.9572 96.6641 59.0672C96.4808 59.1772 96.2641 59.2322 96.0141 59.2322ZM100.803 59.1522V55.6022H103.193V56.1672H101.453V57.0922H103.133V57.6522H101.453V58.5872H103.233V59.1522H100.803ZM106.605 59.1522V55.6022H108.995V56.1672H107.255V57.0922H108.935V57.6522H107.255V58.5872H109.035V59.1522H106.605ZM112.431 59.1522V55.6022H113.081V58.9522L112.726 58.5872H114.766V59.1522H112.431ZM117.921 59.1522V55.6022H118.571V59.1522H117.921ZM122.043 59.1522V55.6022H122.803L124.333 58.2722V55.6022H124.983V59.1522H124.203L122.693 56.5572V59.1522H122.043ZM129.89 59.2322C129.553 59.2322 129.263 59.1539 129.02 58.9972C128.776 58.8372 128.59 58.6189 128.46 58.3422C128.333 58.0656 128.27 57.7456 128.27 57.3822C128.27 57.0256 128.335 56.7072 128.465 56.4272C128.598 56.1472 128.788 55.9272 129.035 55.7672C129.281 55.6039 129.578 55.5222 129.925 55.5222C130.225 55.5222 130.476 55.5739 130.68 55.6772C130.886 55.7806 131.051 55.9239 131.175 56.1072C131.298 56.2906 131.385 56.5022 131.435 56.7422L130.755 56.7772C130.718 56.5672 130.635 56.4006 130.505 56.2772C130.378 56.1506 130.186 56.0872 129.93 56.0872C129.703 56.0872 129.516 56.1456 129.37 56.2622C129.226 56.3789 129.118 56.5356 129.045 56.7322C128.975 56.9256 128.94 57.1422 128.94 57.3822C128.94 57.6289 128.975 57.8489 129.045 58.0422C129.115 58.2356 129.223 58.3889 129.37 58.5022C129.52 58.6122 129.708 58.6672 129.935 58.6672C130.111 58.6672 130.263 58.6306 130.39 58.5572C130.516 58.4839 130.616 58.3839 130.69 58.2572C130.763 58.1272 130.803 57.9839 130.81 57.8272H129.935V57.3222H131.445V59.1522H131.025L130.985 58.3722L131.065 58.4222C131.028 58.5822 130.953 58.7239 130.84 58.8472C130.73 58.9672 130.591 59.0622 130.425 59.1322C130.261 59.1989 130.083 59.2322 129.89 59.2322Z" fill="#F9FFF1"/>
<path d="M18.4 59.1522V55.6022H20.775V56.1672H18.695L19.05 55.8022V57.4322L18.695 57.1372H20.685V57.6972H18.695L19.05 57.4022V59.1522H18.4ZM24.0699 59.1522V55.6022H24.7199V59.1522H24.0699ZM28.2701 59.1522V55.6022H28.9201V58.9522L28.5651 58.5872H30.6051V59.1522H28.2701ZM33.7594 59.1522V55.6022H34.6344L35.6144 58.3522L36.5944 55.6022H37.4694V59.1522H36.8194V56.7022L35.9244 59.1472H35.3044L34.4094 56.7022V59.1522H33.7594ZM42.283 59.2322C41.9896 59.2322 41.7363 59.1806 41.523 59.0772C41.3096 58.9739 41.1413 58.8306 41.018 58.6472C40.898 58.4606 40.828 58.2439 40.808 57.9972L41.468 57.9572C41.488 58.1106 41.5313 58.2406 41.598 58.3472C41.668 58.4539 41.7596 58.5356 41.873 58.5922C41.9896 58.6456 42.1296 58.6722 42.293 58.6722C42.433 58.6722 42.5513 58.6556 42.648 58.6222C42.748 58.5856 42.823 58.5339 42.873 58.4672C42.9263 58.3972 42.953 58.3122 42.953 58.2122C42.953 58.1222 42.9313 58.0422 42.888 57.9722C42.8446 57.8989 42.7613 57.8339 42.638 57.7772C42.5146 57.7172 42.3313 57.6589 42.088 57.6022C41.7946 57.5356 41.5596 57.4606 41.383 57.3772C41.2063 57.2906 41.078 57.1839 40.998 57.0572C40.918 56.9272 40.878 56.7656 40.878 56.5722C40.878 56.3656 40.9296 56.1839 41.033 56.0272C41.1363 55.8672 41.283 55.7439 41.473 55.6572C41.663 55.5672 41.8913 55.5222 42.158 55.5222C42.4413 55.5222 42.6813 55.5739 42.878 55.6772C43.0746 55.7772 43.2296 55.9156 43.343 56.0922C43.4563 56.2689 43.5263 56.4722 43.553 56.7022L42.898 56.7322C42.8813 56.6022 42.8413 56.4889 42.778 56.3922C42.718 56.2956 42.6346 56.2206 42.528 56.1672C42.4246 56.1106 42.298 56.0822 42.148 56.0822C41.9613 56.0822 41.813 56.1256 41.703 56.2122C41.5963 56.2956 41.543 56.4072 41.543 56.5472C41.543 56.6439 41.5646 56.7239 41.608 56.7872C41.6546 56.8506 41.7363 56.9056 41.853 56.9522C41.9696 56.9956 42.133 57.0422 42.343 57.0922C42.6596 57.1589 42.9113 57.2439 43.098 57.3472C43.2846 57.4506 43.418 57.5706 43.498 57.7072C43.578 57.8439 43.618 58.0006 43.618 58.1772C43.618 58.3939 43.563 58.5822 43.453 58.7422C43.343 58.8989 43.188 59.0206 42.988 59.1072C42.788 59.1906 42.553 59.2322 42.283 59.2322Z" fill="#F9FFF1"/>
<path d="M16.6738 35.5477H24.8271C25.0967 35.9895 25.4299 36.2889 25.8267 36.4462C26.3133 36.6333 26.8861 36.7269 27.5449 36.7269C28.945 36.7269 29.645 36.3938 29.645 35.7274C29.645 35.2557 29.3081 34.9637 28.6343 34.8514C28.0129 34.7541 26.6652 34.6044 24.5913 34.4022C22.6971 34.215 21.0799 33.9043 19.7397 33.4701C18.7889 33.1631 18.0627 32.6802 17.561 32.0214C17.0594 31.3625 16.8086 30.5651 16.8086 29.6293C16.8086 28.3565 17.2541 27.3083 18.145 26.4847C19.6873 25.0472 22.5137 24.3285 26.624 24.3285C29.8958 24.3285 32.3141 24.8301 33.8789 25.8334C34.7699 26.4099 35.4137 27.1623 35.8105 28.0907C35.9303 28.3752 36.0614 28.7832 36.2036 29.3148H28.5444C28.3722 28.8656 28.1064 28.5399 27.7471 28.3378C27.2454 28.0533 26.5941 27.911 25.793 27.911C25.2389 27.911 24.786 27.9859 24.4341 28.1356C24.0148 28.3078 23.8052 28.5736 23.8052 28.933C23.8052 29.3298 24.0859 29.5918 24.6475 29.7191C25.3737 29.8838 26.8374 30.0785 29.0386 30.3031C30.3787 30.4379 31.3521 30.5651 31.9585 30.6849C32.5724 30.8047 33.2051 30.9882 33.8564 31.2352C35.7432 31.954 36.6865 33.2867 36.6865 35.2333C36.6865 37.2173 35.7581 38.6211 33.9014 39.4447C32.1195 40.2383 29.66 40.6351 26.5229 40.6351C23.2062 40.6351 20.7655 40.2084 19.2007 39.3549C18.0851 38.7484 17.3439 37.966 16.9771 37.0077C16.8423 36.6558 16.7412 36.1691 16.6738 35.5477ZM38.708 24.8226H44.5815V32.6727C44.5815 33.9755 44.7725 34.9263 45.1543 35.5253C45.6709 36.3339 46.5918 36.7382 47.917 36.7382C49.2422 36.7382 50.1631 36.3339 50.6797 35.5253C51.0615 34.9263 51.2524 33.9755 51.2524 32.6727V24.8226H57.126V32.9423C57.126 34.3199 57.0736 35.2969 56.9688 35.8734C56.6169 37.7227 55.5088 39.0329 53.6445 39.8041C52.3044 40.3656 50.3952 40.6464 47.917 40.6464C45.4388 40.6464 43.5296 40.3656 42.1895 39.8041C40.3252 39.0329 39.2209 37.7227 38.8765 35.8734C38.7642 35.2894 38.708 34.361 38.708 33.0883V24.8226ZM59.9785 40.1522V24.8226H72.1187C73.646 24.8226 74.7653 24.8825 75.4766 25.0023C76.7793 25.2344 77.7152 25.7548 78.2842 26.5634C78.7334 27.1997 78.958 27.9484 78.958 28.8094C78.958 29.5731 78.7671 30.2133 78.3853 30.7299C78.1756 31.0219 77.8275 31.3288 77.3408 31.6508C77.8125 31.8679 78.1644 32.0551 78.3965 32.2123C78.9355 32.5866 79.3436 33.1332 79.6206 33.8519C79.8078 34.361 79.9014 34.9188 79.9014 35.5253C79.9014 36.6184 79.6243 37.5655 79.0703 38.3666C78.4788 39.2276 77.5018 39.7666 76.1392 39.9838C75.4653 40.0961 74.4583 40.1522 73.1182 40.1522H59.9785ZM65.8521 36.4237H70.7822C71.8903 36.4087 72.5566 36.3825 72.7812 36.3451C73.3503 36.2478 73.6348 35.8959 73.6348 35.2894C73.6348 34.7728 73.3802 34.4584 72.8711 34.3461C72.624 34.2937 71.9277 34.26 70.7822 34.245H65.8521V36.4237ZM65.8521 30.5052H70.1196C71.0555 30.5052 71.6694 30.4753 71.9614 30.4154C72.4481 30.3181 72.6914 30.0149 72.6914 29.5057C72.6914 29.0565 72.4743 28.7758 72.04 28.6635C71.7031 28.5736 71.063 28.5287 70.1196 28.5287H65.8521V30.5052ZM82.2373 40.1522V24.8226H91.8843L94.3325 31.8417L96.7021 24.8226H106.282V40.1522H100.408V29.5844L96.7021 40.1522H91.8843L88.1108 29.5844V40.1522H82.2373ZM109.325 40.1522V24.8226H115.199V40.1522H109.325ZM122.824 40.1522V28.7308H116.984V24.8226H134.605V28.7308H128.698V40.1522H122.824Z" fill="#F9FFF1"/>
<line x1="155" y1="0.152222" x2="155" y2="73.1522" stroke="#F9FFF1" stroke-width="2" stroke-dasharray="4 4"/>
<path d="M175.7 35.7668C174.889 35.9323 174.365 36.7245 174.53 37.5362C174.696 38.348 175.488 38.8718 176.3 38.7063L175.7 35.7668ZM200.931 38.4128C201.58 37.8987 201.69 36.9554 201.176 36.3057L192.799 25.7195C192.285 25.0699 191.341 24.96 190.692 25.4741C190.042 25.9882 189.932 26.9316 190.446 27.5812L197.893 36.9912L188.483 44.4378C187.833 44.9519 187.723 45.8953 188.238 46.5449C188.752 47.1945 189.695 47.3044 190.345 46.7903L200.931 38.4128ZM176.3 38.7063C184.333 37.0684 189.71 37.5483 199.826 38.7265L200.174 35.7466C190.027 34.5649 184.238 34.0261 175.7 35.7668L176.3 38.7063Z" fill="white"/>
<line x1="54.375" y1="50.1522" x2="54.375" y2="65.1522" stroke="#F9FFF1" stroke-width="0.75"/>
<line y1="49.7772" x2="155" y2="49.7772" stroke="#F9FFF1" stroke-width="0.75"/>
</svg>
